<svg xmlns="http://www.w3.org/2000/svg" width="1800" height="1210" viewBox="0 0 1800 1210" font-family="DejaVu Sans, Arial, sans-serif">
<defs>
<marker id="ah" viewBox="0 0 10 10" refX="9" refY="5" markerWidth="8" markerHeight="8" orient="auto-start-reverse"><path d="M0,0 L10,5 L0,10 z" fill="#263238"/></marker>
<marker id="ag" viewBox="0 0 10 10" refX="9" refY="5" markerWidth="8" markerHeight="8" orient="auto-start-reverse"><path d="M0,0 L10,5 L0,10 z" fill="#607d8b"/></marker>
</defs>
<rect width="1800" height="1210" fill="#ffffff"/>
<text x="20" y="32" font-size="22" text-anchor="start" fill="#263238" font-weight="bold">TrackFleet (NeoCargo Analytics) : architecture multi-environnement</text>
<rect x="20" y="48" width="1760" height="215" rx="8" fill="#f5f7fa" stroke="#90a4ae" stroke-width="1.5"/>
<text x="900" y="72" font-size="14" text-anchor="middle" fill="#37474f" font-weight="bold">Dépôt Git partagé : un seul code. La branche main est protégée, toute modification passe par une Pull Request relue.</text>
<rect x="490" y="92" width="190" height="46" rx="6" fill="#ffffff" stroke="#546e7a" stroke-width="1.5"/>
<text x="585" y="112" font-size="13" text-anchor="middle" fill="#263238" font-weight="bold">modules/network</text>
<text x="585" y="129" font-size="11" text-anchor="middle" fill="#607d8b">VPC, routage, Security Groups</text>
<path d="M585,138 L585,160" fill="none" stroke="#607d8b" stroke-width="2"/>
<rect x="700" y="92" width="190" height="46" rx="6" fill="#ffffff" stroke="#546e7a" stroke-width="1.5"/>
<text x="795" y="112" font-size="13" text-anchor="middle" fill="#263238" font-weight="bold">modules/compute</text>
<text x="795" y="129" font-size="11" text-anchor="middle" fill="#607d8b">bastion, ALB, ASG</text>
<path d="M795,138 L795,160" fill="none" stroke="#607d8b" stroke-width="2"/>
<rect x="910" y="92" width="190" height="46" rx="6" fill="#ffffff" stroke="#546e7a" stroke-width="1.5"/>
<text x="1005" y="112" font-size="13" text-anchor="middle" fill="#263238" font-weight="bold">modules/data</text>
<text x="1005" y="129" font-size="11" text-anchor="middle" fill="#607d8b">RDS, S3, secret</text>
<path d="M1005,138 L1005,160" fill="none" stroke="#607d8b" stroke-width="2"/>
<rect x="1120" y="92" width="190" height="46" rx="6" fill="#ffffff" stroke="#546e7a" stroke-width="1.5"/>
<text x="1215" y="112" font-size="13" text-anchor="middle" fill="#263238" font-weight="bold">ansible/</text>
<text x="1215" y="129" font-size="11" text-anchor="middle" fill="#607d8b">rôles webserver, monitoring</text>
<path d="M1215,138 L1215,160" fill="none" stroke="#607d8b" stroke-width="2"/>
<path d="M585,160 L1215,160" fill="none" stroke="#607d8b" stroke-width="2"/>
<path d="M585,160 L380,160 L380,200" fill="none" stroke="#607d8b" stroke-width="2.5" marker-end="url(#ag)"/>
<path d="M1215,160 L1420,160 L1420,200" fill="none" stroke="#607d8b" stroke-width="2.5" marker-end="url(#ag)"/>
<text x="900" y="182" font-size="12" text-anchor="middle" fill="#455a64" font-style="italic">mêmes modules, mêmes rôles : seules les valeurs changent</text>
<rect x="200" y="200" width="360" height="46" rx="6" fill="#ffffff" stroke="#546e7a" stroke-width="1.5"/>
<text x="380" y="220" font-size="13" text-anchor="middle" fill="#263238" font-weight="bold">terraform/environments/prod/</text>
<text x="380" y="237" font-size="11" text-anchor="middle" fill="#607d8b">main.tf identique · prod.tfvars propre</text>
<rect x="1240" y="200" width="360" height="46" rx="6" fill="#ffffff" stroke="#546e7a" stroke-width="1.5"/>
<text x="1420" y="220" font-size="13" text-anchor="middle" fill="#263238" font-weight="bold">terraform/environments/staging/</text>
<text x="1420" y="237" font-size="11" text-anchor="middle" fill="#607d8b">main.tf identique · staging.tfvars propre</text>
<path d="M380,246 L380,290" fill="none" stroke="#263238" stroke-width="2.5" marker-end="url(#ah)"/>
<path d="M1420,246 L1420,290" fill="none" stroke="#263238" stroke-width="2.5" marker-end="url(#ah)"/>
<text x="392" y="273" font-size="11" text-anchor="start" fill="#455a64">terraform apply</text>
<text x="1432" y="273" font-size="11" text-anchor="start" fill="#455a64">terraform apply</text>
<rect x="20" y="290" width="860" height="530" rx="10" fill="#ffffff" stroke="#ad1457" stroke-width="2.5"/>
<rect x="20" y="290" width="860" height="46" rx="10" fill="#fce4ec" stroke="#ad1457" stroke-width="2.5"/>
<text x="35" y="321" font-size="21" text-anchor="start" fill="#ad1457" font-weight="bold">PROD</text>
<text x="170" y="320" font-size="13" text-anchor="start" fill="#37474f">compte AWS de Ryad (lab 1)</text>
<text x="865" y="320" font-size="12" text-anchor="end" fill="#37474f">Ansible : --limit prod</text>
<ellipse cx="365" cy="352" rx="40" ry="11" fill="#eceff1" stroke="#607d8b" stroke-width="1.5"/>
<text x="365" y="356" font-size="11" text-anchor="middle" fill="#37474f" font-weight="bold">Internet</text>
<rect x="35" y="380" width="650" height="395" rx="8" fill="#fafafa" stroke="#455a64" stroke-width="2.5"/>
<text x="47" y="399" font-size="13" text-anchor="start" fill="#455a64" font-weight="bold">VPC 10.10.0.0/16</text>
<circle cx="189" cy="395" r="9" fill="#ef6c00"/>
<text x="189" y="399" font-size="12" text-anchor="middle" fill="#ffffff" font-weight="bold">≠</text>
<text x="205" y="411" font-size="11" text-anchor="middle" fill="#455a64" font-weight="bold">zone a</text>
<text x="525" y="412" font-size="11" text-anchor="middle" fill="#455a64" font-weight="bold">zone b</text>
<rect x="50" y="417" width="310" height="113" rx="6" fill="#e8f5e9" stroke="#43a047" stroke-width="1.5"/>
<text x="58" y="432" font-size="11" text-anchor="start" fill="#2e7d32" font-weight="bold">public 10.10.1.0/24</text>
<rect x="370" y="417" width="310" height="113" rx="6" fill="#e8f5e9" stroke="#43a047" stroke-width="1.5"/>
<text x="378" y="432" font-size="11" text-anchor="start" fill="#2e7d32" font-weight="bold">public 10.10.2.0/24</text>
<rect x="50" y="540" width="310" height="113" rx="6" fill="#e3f2fd" stroke="#1e88e5" stroke-width="1.5"/>
<text x="58" y="555" font-size="11" text-anchor="start" fill="#1565c0" font-weight="bold">applicatif 10.10.11.0/24</text>
<rect x="370" y="540" width="310" height="113" rx="6" fill="#e3f2fd" stroke="#1e88e5" stroke-width="1.5"/>
<text x="378" y="555" font-size="11" text-anchor="start" fill="#1565c0" font-weight="bold">applicatif 10.10.12.0/24</text>
<rect x="50" y="663" width="310" height="105" rx="6" fill="#ede7f6" stroke="#7e57c2" stroke-width="1.5"/>
<text x="58" y="678" font-size="11" text-anchor="start" fill="#4527a0" font-weight="bold">données 10.10.21.0/24</text>
<rect x="370" y="663" width="310" height="105" rx="6" fill="#ede7f6" stroke="#7e57c2" stroke-width="1.5"/>
<text x="378" y="678" font-size="11" text-anchor="start" fill="#4527a0" font-weight="bold">données 10.10.22.0/24</text>
<rect x="65" y="440" width="600" height="38" rx="8" fill="#c8e6c9" stroke="#2e7d32" stroke-width="2"/>
<text x="365" y="464" font-size="14" text-anchor="middle" fill="#1b5e20" font-weight="bold">ALB public · HTTP 80</text>
<rect x="65" y="488" width="130" height="34" rx="6" fill="#fff9c4" stroke="#f9a825" stroke-width="2"/>
<text x="130" y="509" font-size="12" text-anchor="middle" fill="#5d4037" font-weight="bold">NAT Gateway</text>
<rect x="205" y="488" width="100" height="34" rx="6" fill="#fff9c4" stroke="#f9a825" stroke-width="2"/>
<text x="255" y="509" font-size="12" text-anchor="middle" fill="#5d4037" font-weight="bold">Bastion</text>
<rect x="62" y="562" width="606" height="82" rx="8" fill="none" stroke="#00897b" stroke-width="2.5" stroke-dasharray="10,5"/>
<rect x="80" y="570" width="260" height="40" rx="6" fill="#bbdefb" stroke="#1565c0" stroke-width="2"/>
<text x="210" y="594" font-size="12" text-anchor="middle" fill="#0d47a1" font-weight="bold">EC2 app (nginx, PHP)</text>
<rect x="400" y="570" width="260" height="40" rx="6" fill="#bbdefb" stroke="#1565c0" stroke-width="2"/>
<text x="530" y="594" font-size="12" text-anchor="middle" fill="#0d47a1" font-weight="bold">EC2 app (nginx, PHP)</text>
<circle cx="82" cy="630" r="9" fill="#ef6c00"/>
<text x="82" y="634" font-size="12" text-anchor="middle" fill="#ffffff" font-weight="bold">≠</text>
<text x="98" y="634" font-size="11" text-anchor="start" fill="#00695c" font-weight="bold">ASG : min 2 · désirée 2 · max 4</text>
<rect x="80" y="688" width="260" height="40" rx="6" fill="#d1c4e9" stroke="#4527a0" stroke-width="2"/>
<text x="210" y="712" font-size="12" text-anchor="middle" fill="#311b92" font-weight="bold">RDS PostgreSQL · db.t3.micro</text>
<text x="525" y="715" font-size="11" text-anchor="middle" fill="#6a5a8e" font-style="italic">2e zone du groupe de subnets</text>
<rect x="705" y="535" width="160" height="115" rx="8" fill="#fff3e0" stroke="#fb8c00" stroke-width="2"/>
<text x="785" y="560" font-size="13" text-anchor="middle" fill="#e65100" font-weight="bold">Amazon S3</text>
<text x="785" y="576" font-size="11" text-anchor="middle" fill="#e65100">(hors VPC)</text>
<text x="785" y="604" font-size="11" text-anchor="middle" fill="#5d4037">versioning · SSE</text>
<text x="785" y="622" font-size="11" text-anchor="middle" fill="#5d4037">accès public bloqué</text>
<path d="M365,363 L365,440" fill="none" stroke="#263238" stroke-width="2.5" marker-end="url(#ah)"/>
<text x="373" y="408" font-size="11" text-anchor="start" fill="#263238">80</text>
<path d="M320,478 L320,570" fill="none" stroke="#263238" stroke-width="2.5" marker-end="url(#ah)"/>
<text x="328" y="530" font-size="11" text-anchor="start" fill="#263238">80</text>
<path d="M580,478 L580,570" fill="none" stroke="#263238" stroke-width="2.5" marker-end="url(#ah)"/>
<path d="M310,610 L310,688" fill="none" stroke="#263238" stroke-width="2.5" marker-end="url(#ah)"/>
<text x="319" y="678" font-size="11" text-anchor="start" fill="#263238">5432</text>
<path d="M600,610 L600,658 L310,658" fill="none" stroke="#263238" stroke-width="2.5"/>
<path d="M668,590 L705,590" fill="none" stroke="#263238" stroke-width="2.5" marker-end="url(#ah)"/>
<text x="674" y="571" font-size="11" text-anchor="start" fill="#263238">443</text>
<text x="365" y="800" font-size="12" text-anchor="middle" fill="#c62828">Security Groups en cascade : Internet → SG-ALB → SG-app → SG-RDS</text>
<rect x="920" y="290" width="860" height="530" rx="10" fill="#ffffff" stroke="#00796b" stroke-width="2.5"/>
<rect x="920" y="290" width="860" height="46" rx="10" fill="#e0f2f1" stroke="#00796b" stroke-width="2.5"/>
<text x="935" y="321" font-size="21" text-anchor="start" fill="#00796b" font-weight="bold">STAGING</text>
<text x="1070" y="320" font-size="13" text-anchor="start" fill="#37474f">compte AWS de TitanHolo45 (lab 2)</text>
<text x="1765" y="320" font-size="12" text-anchor="end" fill="#37474f">Ansible : --limit staging</text>
<ellipse cx="1265" cy="352" rx="40" ry="11" fill="#eceff1" stroke="#607d8b" stroke-width="1.5"/>
<text x="1265" y="356" font-size="11" text-anchor="middle" fill="#37474f" font-weight="bold">Internet</text>
<rect x="935" y="380" width="650" height="395" rx="8" fill="#fafafa" stroke="#455a64" stroke-width="2.5"/>
<text x="947" y="399" font-size="13" text-anchor="start" fill="#455a64" font-weight="bold">VPC 10.20.0.0/16</text>
<circle cx="1089" cy="395" r="9" fill="#ef6c00"/>
<text x="1089" y="399" font-size="12" text-anchor="middle" fill="#ffffff" font-weight="bold">≠</text>
<text x="1105" y="411" font-size="11" text-anchor="middle" fill="#455a64" font-weight="bold">zone a</text>
<text x="1425" y="412" font-size="11" text-anchor="middle" fill="#455a64" font-weight="bold">zone b</text>
<rect x="950" y="417" width="310" height="113" rx="6" fill="#e8f5e9" stroke="#43a047" stroke-width="1.5"/>
<text x="958" y="432" font-size="11" text-anchor="start" fill="#2e7d32" font-weight="bold">public 10.20.1.0/24</text>
<rect x="1270" y="417" width="310" height="113" rx="6" fill="#e8f5e9" stroke="#43a047" stroke-width="1.5"/>
<text x="1278" y="432" font-size="11" text-anchor="start" fill="#2e7d32" font-weight="bold">public 10.20.2.0/24</text>
<rect x="950" y="540" width="310" height="113" rx="6" fill="#e3f2fd" stroke="#1e88e5" stroke-width="1.5"/>
<text x="958" y="555" font-size="11" text-anchor="start" fill="#1565c0" font-weight="bold">applicatif 10.20.11.0/24</text>
<rect x="1270" y="540" width="310" height="113" rx="6" fill="#e3f2fd" stroke="#1e88e5" stroke-width="1.5"/>
<text x="1278" y="555" font-size="11" text-anchor="start" fill="#1565c0" font-weight="bold">applicatif 10.20.12.0/24</text>
<rect x="950" y="663" width="310" height="105" rx="6" fill="#ede7f6" stroke="#7e57c2" stroke-width="1.5"/>
<text x="958" y="678" font-size="11" text-anchor="start" fill="#4527a0" font-weight="bold">données 10.20.21.0/24</text>
<rect x="1270" y="663" width="310" height="105" rx="6" fill="#ede7f6" stroke="#7e57c2" stroke-width="1.5"/>
<text x="1278" y="678" font-size="11" text-anchor="start" fill="#4527a0" font-weight="bold">données 10.20.22.0/24</text>
<rect x="965" y="440" width="600" height="38" rx="8" fill="#c8e6c9" stroke="#2e7d32" stroke-width="2"/>
<text x="1265" y="464" font-size="14" text-anchor="middle" fill="#1b5e20" font-weight="bold">ALB public · HTTP 80</text>
<rect x="965" y="488" width="130" height="34" rx="6" fill="#fff9c4" stroke="#f9a825" stroke-width="2"/>
<text x="1030" y="509" font-size="12" text-anchor="middle" fill="#5d4037" font-weight="bold">NAT Gateway</text>
<rect x="1105" y="488" width="100" height="34" rx="6" fill="#fff9c4" stroke="#f9a825" stroke-width="2"/>
<text x="1155" y="509" font-size="12" text-anchor="middle" fill="#5d4037" font-weight="bold">Bastion</text>
<rect x="962" y="562" width="606" height="82" rx="8" fill="none" stroke="#00897b" stroke-width="2.5" stroke-dasharray="10,5"/>
<rect x="980" y="570" width="260" height="40" rx="6" fill="#bbdefb" stroke="#1565c0" stroke-width="2"/>
<text x="1110" y="594" font-size="12" text-anchor="middle" fill="#0d47a1" font-weight="bold">EC2 app (nginx, PHP)</text>
<rect x="1300" y="570" width="260" height="40" rx="6" fill="#f5f5f5" stroke="#9e9e9e" stroke-width="1.5" stroke-dasharray="6,4"/>
<text x="1430" y="594" font-size="11" text-anchor="middle" fill="#757575" font-style="italic">2e instance possible (max 2)</text>
<circle cx="982" cy="630" r="9" fill="#ef6c00"/>
<text x="982" y="634" font-size="12" text-anchor="middle" fill="#ffffff" font-weight="bold">≠</text>
<text x="998" y="634" font-size="11" text-anchor="start" fill="#00695c" font-weight="bold">ASG : min 1 · désirée 1 · max 2</text>
<rect x="980" y="688" width="260" height="40" rx="6" fill="#d1c4e9" stroke="#4527a0" stroke-width="2"/>
<text x="1110" y="712" font-size="12" text-anchor="middle" fill="#311b92" font-weight="bold">RDS PostgreSQL · db.t3.micro</text>
<text x="1425" y="715" font-size="11" text-anchor="middle" fill="#6a5a8e" font-style="italic">2e zone du groupe de subnets</text>
<rect x="1605" y="535" width="160" height="115" rx="8" fill="#fff3e0" stroke="#fb8c00" stroke-width="2"/>
<text x="1685" y="560" font-size="13" text-anchor="middle" fill="#e65100" font-weight="bold">Amazon S3</text>
<text x="1685" y="576" font-size="11" text-anchor="middle" fill="#e65100">(hors VPC)</text>
<text x="1685" y="604" font-size="11" text-anchor="middle" fill="#5d4037">versioning · SSE</text>
<text x="1685" y="622" font-size="11" text-anchor="middle" fill="#5d4037">accès public bloqué</text>
<path d="M1265,363 L1265,440" fill="none" stroke="#263238" stroke-width="2.5" marker-end="url(#ah)"/>
<text x="1273" y="408" font-size="11" text-anchor="start" fill="#263238">80</text>
<path d="M1220,478 L1220,570" fill="none" stroke="#263238" stroke-width="2.5" marker-end="url(#ah)"/>
<text x="1228" y="530" font-size="11" text-anchor="start" fill="#263238">80</text>
<path d="M1480,478 L1480,562" fill="none" stroke="#9e9e9e" stroke-width="2.5" stroke-dasharray="6,4" marker-end="url(#ag)"/>
<path d="M1210,610 L1210,688" fill="none" stroke="#263238" stroke-width="2.5" marker-end="url(#ah)"/>
<text x="1219" y="678" font-size="11" text-anchor="start" fill="#263238">5432</text>
<path d="M1568,590 L1605,590" fill="none" stroke="#263238" stroke-width="2.5" marker-end="url(#ah)"/>
<text x="1574" y="571" font-size="11" text-anchor="start" fill="#263238">443</text>
<text x="1265" y="800" font-size="12" text-anchor="middle" fill="#c62828">Security Groups en cascade : Internet → SG-ALB → SG-app → SG-RDS</text>
<rect x="20" y="850" width="1760" height="30" rx="0" fill="#37474f" stroke="#37474f" stroke-width="1"/>
<text x="30" y="870" font-size="13" text-anchor="start" fill="#ffffff" font-weight="bold">Paramètre</text>
<text x="300" y="870" font-size="13" text-anchor="start" fill="#ffffff" font-weight="bold">PROD</text>
<text x="630" y="870" font-size="13" text-anchor="start" fill="#ffffff" font-weight="bold">STAGING</text>
<text x="960" y="870" font-size="13" text-anchor="start" fill="#ffffff" font-weight="bold">Pourquoi</text>
<rect x="20" y="880" width="1760" height="28" rx="0" fill="#fff8e1" stroke="#cfd8dc" stroke-width="1"/>
<text x="30" y="899" font-size="12" text-anchor="start" fill="#263238" font-weight="bold">Déployé par</text>
<text x="300" y="899" font-size="12" text-anchor="start" fill="#263238">Ryad, dans son lab (lab 1)</text>
<text x="630" y="899" font-size="12" text-anchor="start" fill="#263238">TitanHolo45, dans son lab (lab 2)</text>
<text x="960" y="899" font-size="12" text-anchor="start" fill="#263238">un apply par compte : aucun state partagé, aucun apply simultané</text>
<circle cx="268" cy="894" r="9" fill="#ef6c00"/>
<text x="268" y="898" font-size="12" text-anchor="middle" fill="#ffffff" font-weight="bold">≠</text>
<rect x="20" y="908" width="1760" height="28" rx="0" fill="#fff8e1" stroke="#cfd8dc" stroke-width="1"/>
<text x="30" y="927" font-size="12" text-anchor="start" fill="#263238" font-weight="bold">Plage du VPC</text>
<text x="300" y="927" font-size="12" text-anchor="start" fill="#263238">10.10.0.0/16</text>
<text x="630" y="927" font-size="12" text-anchor="start" fill="#263238">10.20.0.0/16</text>
<text x="960" y="927" font-size="12" text-anchor="start" fill="#263238">plages distinctes, sans chevauchement</text>
<circle cx="268" cy="922" r="9" fill="#ef6c00"/>
<text x="268" y="926" font-size="12" text-anchor="middle" fill="#ffffff" font-weight="bold">≠</text>
<rect x="20" y="936" width="1760" height="28" rx="0" fill="#fff8e1" stroke="#cfd8dc" stroke-width="1"/>
<text x="30" y="955" font-size="12" text-anchor="start" fill="#263238" font-weight="bold">ASG min / désirée / max</text>
<text x="300" y="955" font-size="12" text-anchor="start" fill="#263238">2 / 2 / 4</text>
<text x="630" y="955" font-size="12" text-anchor="start" fill="#263238">1 / 1 / 2</text>
<text x="960" y="955" font-size="12" text-anchor="start" fill="#263238">prod survit à la perte d'une zone ; staging reste minimal</text>
<circle cx="268" cy="950" r="9" fill="#ef6c00"/>
<text x="268" y="954" font-size="12" text-anchor="middle" fill="#ffffff" font-weight="bold">≠</text>
<rect x="20" y="964" width="1760" height="28" rx="0" fill="#fff8e1" stroke="#cfd8dc" stroke-width="1"/>
<text x="30" y="983" font-size="12" text-anchor="start" fill="#263238" font-weight="bold">Logs nginx</text>
<text x="300" y="983" font-size="12" text-anchor="start" fill="#263238">warn (sobres)</text>
<text x="630" y="983" font-size="12" text-anchor="start" fill="#263238">info (détaillés)</text>
<text x="960" y="983" font-size="12" text-anchor="start" fill="#263238">diagnostic facilité en staging, journaux sobres en prod</text>
<circle cx="268" cy="978" r="9" fill="#ef6c00"/>
<text x="268" y="982" font-size="12" text-anchor="middle" fill="#ffffff" font-weight="bold">≠</text>
<rect x="20" y="992" width="1760" height="28" rx="0" fill="#fff8e1" stroke="#cfd8dc" stroke-width="1"/>
<text x="30" y="1011" font-size="12" text-anchor="start" fill="#263238" font-weight="bold">Erreurs PHP affichées</text>
<text x="300" y="1011" font-size="12" text-anchor="start" fill="#263238">non</text>
<text x="630" y="1011" font-size="12" text-anchor="start" fill="#263238">oui</text>
<text x="960" y="1011" font-size="12" text-anchor="start" fill="#263238">utiles pour déboguer, jamais en production</text>
<circle cx="268" cy="1006" r="9" fill="#ef6c00"/>
<text x="268" y="1010" font-size="12" text-anchor="middle" fill="#ffffff" font-weight="bold">≠</text>
<rect x="20" y="1020" width="1760" height="28" rx="0" fill="#fff8e1" stroke="#cfd8dc" stroke-width="1"/>
<text x="30" y="1039" font-size="12" text-anchor="start" fill="#263238" font-weight="bold">Durée de vie</text>
<text x="300" y="1039" font-size="12" text-anchor="start" fill="#263238">permanente</text>
<text x="630" y="1039" font-size="12" text-anchor="start" fill="#263238">jetable</text>
<text x="960" y="1039" font-size="12" text-anchor="start" fill="#263238">staging peut être détruit et recréé souvent</text>
<circle cx="268" cy="1034" r="9" fill="#ef6c00"/>
<text x="268" y="1038" font-size="12" text-anchor="middle" fill="#ffffff" font-weight="bold">≠</text>
<rect x="20" y="1048" width="1760" height="28" rx="0" fill="#e8f5e9" stroke="#cfd8dc" stroke-width="1"/>
<text x="30" y="1067" font-size="12" text-anchor="start" fill="#263238" font-weight="bold">Code des modules et des rôles</text>
<text x="300" y="1067" font-size="12" text-anchor="start" fill="#263238">identique</text>
<text x="630" y="1067" font-size="12" text-anchor="start" fill="#263238">identique</text>
<text x="960" y="1067" font-size="12" text-anchor="start" fill="#263238">seules les valeurs (.tfvars, group_vars) diffèrent</text>
<rect x="20" y="1100" width="1760" height="95" rx="8" fill="#ffffff" stroke="#90a4ae" stroke-width="1.5"/>
<text x="35" y="1124" font-size="14" text-anchor="start" fill="#263238" font-weight="bold">Légende</text>
<rect x="35" y="1138" width="22" height="16" rx="2" fill="#e8f5e9" stroke="#43a047" stroke-width="1.5"/>
<text x="65" y="1151" font-size="12" text-anchor="start" fill="#263238">Subnet public</text>
<rect x="265" y="1138" width="22" height="16" rx="2" fill="#e3f2fd" stroke="#1e88e5" stroke-width="1.5"/>
<text x="295" y="1151" font-size="12" text-anchor="start" fill="#263238">Subnet applicatif (privé)</text>
<rect x="495" y="1138" width="22" height="16" rx="2" fill="#ede7f6" stroke="#7e57c2" stroke-width="1.5"/>
<text x="525" y="1151" font-size="12" text-anchor="start" fill="#263238">Subnet données (privé)</text>
<rect x="725" y="1138" width="22" height="16" rx="2" fill="#fff3e0" stroke="#fb8c00" stroke-width="1.5"/>
<text x="755" y="1151" font-size="12" text-anchor="start" fill="#263238">Service hors VPC</text>
<path d="M35,1176 L80,1176" fill="none" stroke="#263238" stroke-width="2.5" marker-end="url(#ah)"/>
<text x="90" y="1180" font-size="12" text-anchor="start" fill="#263238">Trafic applicatif (port indiqué)</text>
<rect x="335" y="1168" width="45" height="16" rx="3" fill="none" stroke="#00897b" stroke-width="2.5" stroke-dasharray="10,5"/>
<text x="390" y="1180" font-size="12" text-anchor="start" fill="#263238">Auto Scaling Group</text>
<rect x="560" y="1168" width="45" height="16" rx="3" fill="#f5f5f5" stroke="#9e9e9e" stroke-width="1.5" stroke-dasharray="6,4"/>
<text x="615" y="1180" font-size="12" text-anchor="start" fill="#263238">Instance possible, non lancée</text>
<circle cx="880" cy="1176" r="9" fill="#ef6c00"/>
<text x="880" y="1180" font-size="12" text-anchor="middle" fill="#ffffff" font-weight="bold">≠</text>
<text x="895" y="1180" font-size="12" text-anchor="start" fill="#263238">Valeur qui diffère entre prod et staging (voir tableau)</text>
<path d="M1250,1176 L1295,1176" fill="none" stroke="#607d8b" stroke-width="2.5" marker-end="url(#ag)"/>
<text x="1305" y="1180" font-size="12" text-anchor="start" fill="#263238">Diffusion du code vers l'environnement</text>
</svg>